<!-- Created with PixiEditor (https://pixieditor.net) -->
<svg version="1.1" viewBox="0 0 100 100" xmlns="http://www.w3.org/2000/svg">
  <path d="M61.045 40.7008L55.9585 35.6143C53.6318 33.2876 49.8595 33.2876 47.5328 35.6143L41.2198 41.9274L24.7818 25.4893L45.7855 4.48551C49.0772 1.19382 54.4141 1.19382 57.7058 4.48551L77.483 24.2627L61.045 40.7008ZM61.045 59.2993L66.1313 54.2128C68.458 51.8862 68.458 48.1138 66.1313 45.7873L60.2989 39.9548L76.7371 23.5167L97.2601 44.0398C100.552 47.3315 100.552 52.6685 97.2601 55.9602L77.483 75.7373L61.045 59.2993ZM41.6065 58.4594L47.5328 64.3857C49.8595 66.7125 53.6318 66.7125 55.9585 64.3857L62.1667 58.1776L78.6047 74.6156L57.7058 95.5146C54.4141 98.8062 49.0772 98.8062 45.7855 95.5146L25.1684 74.8974L41.6065 58.4594ZM42.4463 59.2993L6.23094 95.5147C4.6503 97.0953 2.50644 97.9834 0.271151 97.9834L0.271017 53.4914C0.271017 51.2559 1.15906 49.112 2.73982 47.5312L26.0083 24.2627L42.4463 40.7008L37.36 45.7873C35.0333 48.1138 35.0333 51.8862 37.36 54.2128L42.4463 59.2993Z" fill-rule="nonzero" transform="matrix(1, 0, 0, 1, 0, 0)" fill="#ffffff" fill-opacity="1" stroke="#ffffff" stroke-width="0" stroke-linecap="butt" stroke-linejoin="round" opacity="1" id="Ścieżka" />
</svg>